<svg xmlns="http://www.w3.org/2000/svg" xmlns:xlink="http://www.w3.org/1999/xlink" viewBox="0,0,256,256" width="30px" height="30px"><g fill="#6b45ff" fill-rule="nonzero" stroke="none" stroke-width="1" stroke-linecap="butt" stroke-linejoin="miter" stroke-miterlimit="10" stroke-dasharray="" stroke-dashoffset="0" font-family="none" font-weight="none" font-size="none" text-anchor="none" style="mix-blend-mode: normal"><path d="M0,256v-256h256v256z" id="bgRectangle"></path></g><g fill="#000000" fill-rule="nonzero" stroke="none" stroke-width="1" stroke-linecap="butt" stroke-linejoin="miter" stroke-miterlimit="10" stroke-dasharray="" stroke-dashoffset="0" font-family="none" font-weight="none" font-size="none" text-anchor="none" style="mix-blend-mode: normal"><g transform="scale(8.53333,8.53333)"><path d="M15,3c-6.627,0 -12,5.373 -12,12c0,6.627 5.373,12 12,12c6.627,0 12,-5.373 12,-12c0,-6.627 -5.373,-12 -12,-12zM14,8h2v2.00781c1.86,0.043 2.9707,0.97633 2.9707,2.48633c0,1.06 -0.78259,1.98276 -1.80859,2.13476v0.125c1.324,0.097 2.28711,1.09577 2.28711,2.38477c0,1.75 -1.32022,2.85638 -3.44922,2.85938v2.00195h-2v-2h-2.5v-10h2.5zM13.59375,11.60156v2.54297h1.57227c1.13,0 1.74609,-0.46358 1.74609,-1.26758c0,-0.797 -0.57427,-1.27539 -1.57227,-1.27539zM13.59375,15.55859v2.83984h1.86328c1.206,0 1.85742,-0.50641 1.85742,-1.44141c0,-0.915 -0.67325,-1.39844 -1.90625,-1.39844z"></path></g></g></svg>